<svg width="95" height="95" viewBox="0 0 95 95" fill="none" xmlns="http://www.w3.org/2000/svg">
<circle cx="47.5" cy="47.5" r="47.5" fill="black"/>
<path d="M65.2132 16.6634C62.3018 14.9087 58.9332 14.0623 55.5381 14.2325C53.4677 14.1019 51.3922 14.3894 49.4353 15.0779C47.4784 15.7664 45.68 16.8418 44.1475 18.24C42.7338 19.8073 41.6492 21.6424 40.9578 23.6366C40.2664 25.6308 39.9824 27.7435 40.1226 29.8494V30.0891C39.5546 29.8676 38.975 29.6775 38.3862 29.5195C35.8408 28.7699 33.1155 28.9133 30.6628 29.9258C29.5991 30.3356 28.6504 30.997 27.8981 31.8533C27.1457 32.7097 26.6121 33.7356 26.3427 34.8433C25.9614 36.242 26.1317 37.7337 26.8184 39.0106C27.1026 39.6071 27.5142 40.134 28.0243 40.554C28.5343 40.974 29.1304 41.277 29.7703 41.4415C30.2458 41.5711 30.7422 41.6053 31.2309 41.5422C31.7197 41.479 32.1911 41.3197 32.6179 41.0734C33.0431 40.864 33.4162 40.5624 33.71 40.1905C34.0038 39.8186 34.2109 39.3858 34.3161 38.9237C34.3962 38.2781 34.3307 37.6226 34.1246 37.0055C33.9185 36.3884 33.5769 35.8252 33.125 35.3572C33.7181 34.8807 34.4157 34.5516 35.1607 34.397C35.9056 34.2425 36.6766 34.2669 37.4104 34.4682C38.4038 34.7125 39.2991 35.2541 39.9767 36.0205L39.8031 43.4036V61.5522C39.8848 65.2564 39.6921 68.9615 39.2266 72.6372C38.9071 74.1514 38.1466 74.905 36.9381 74.905C36.2013 74.8924 35.4689 74.7898 34.7572 74.5993C34.0571 74.4028 33.3346 74.2978 32.6075 74.2868C32.1712 74.2813 31.7382 74.3636 31.3343 74.5289C30.9304 74.6941 30.5638 74.9389 30.2565 75.2487C29.9388 75.5162 29.6831 75.8494 29.5068 76.2253C29.3305 76.6012 29.2379 77.011 29.2355 77.4262C29.2355 79.68 30.5933 80.7982 33.3542 80.7982C34.0487 80.7982 35.6601 80.6246 38.1535 80.312C39.866 80.0681 41.5949 79.9578 43.3245 79.9821C44.9776 80.0187 46.6268 80.1579 48.2627 80.3988C49.9006 80.618 51.549 80.7501 53.201 80.7947C55.8194 80.7947 57.1252 79.6765 57.1252 77.4227C57.1252 75.3078 56.0382 74.2972 53.8643 74.2972C53.4788 74.2972 52.8502 74.3632 51.9612 74.4604C51.1782 74.6856 50.376 74.8378 49.565 74.9154C48.2801 74.9154 47.4813 74.0541 47.1584 72.349C47.1063 71.9705 47.0785 70.5779 47.0785 68.2234V41.4832C47.0785 40.3337 47.6272 39.7746 48.6864 39.7746H55.7778C57.8614 39.7746 58.9414 38.6042 58.9414 36.3018C58.9414 33.9577 57.8753 32.8291 55.7778 32.8291H48.3183C48.1472 32.8528 47.9729 32.8361 47.8093 32.7805C47.6458 32.7248 47.4975 32.6317 47.3764 32.5086C47.2553 32.3854 47.1646 32.2356 47.1117 32.0712C47.0587 31.9067 47.045 31.7322 47.0716 31.5615V29.8772C46.909 27.2208 47.7381 24.5986 49.3983 22.5184C50.2193 21.6376 51.2226 20.9467 52.3383 20.4938C53.4539 20.041 54.655 19.8371 55.8576 19.8965C57.5859 19.7787 59.2939 20.3253 60.6327 21.4245C60.0214 22.06 59.6803 22.9077 59.6811 23.7895C59.6695 24.3407 59.7792 24.8877 60.0024 25.3918C60.2257 25.8959 60.557 26.3448 60.973 26.7066C61.8412 27.5149 62.9926 27.949 64.1783 27.9151C64.7954 27.9328 65.4096 27.8263 65.9847 27.602C66.5598 27.3777 67.084 27.0401 67.5261 26.6094C67.9696 26.1661 68.3164 25.6358 68.5447 25.0518C68.773 24.4679 68.8779 23.843 68.8527 23.2165C68.873 21.9011 68.5475 20.6035 67.9088 19.4535C67.2701 18.3035 66.3406 17.3413 65.2132 16.6634" fill="white"/>
</svg>
