<svg width="56" height="48" viewBox="0 0 56 48" fill="none" xmlns="http://www.w3.org/2000/svg">
<path d="M53.8056 7.49101L19.8885 0.612026C18.4239 0.316155 17.0363 1.20377 16.728 2.60915L16.1113 6.6034L55.3473 14.5919L55.9639 10.5977C56.1952 9.19227 55.2702 7.78688 53.8056 7.49101Z" fill="white"/>
<path d="M53.8056 7.49101L19.8885 0.612026C18.4239 0.316155 17.0363 1.20377 16.728 2.60915L16.1113 6.6034L55.3473 14.5919L55.9639 10.5977C56.1952 9.19227 55.2702 7.78688 53.8056 7.49101Z" stroke="#11B1CE"/>
<path d="M39.5457 15.3321C39.1603 13.9266 37.6186 13.113 36.2311 13.5568L29.756 15.2581L14.5704 12.1514L12.8746 19.7702L2.46817 22.5811C1.00356 22.9509 0.232721 24.4303 0.618143 25.7618L6.47655 46.1034C6.86197 47.5089 8.40366 48.3225 9.79118 47.8787L43.5541 38.8544C45.0187 38.4846 45.8666 37.0052 45.4041 35.6737L44.402 32.2711L48.1792 33.0108C49.6438 33.3067 51.0313 32.4191 51.3396 31.0136L53.7292 20.1401L40.0853 17.4032L39.5457 15.3321ZM43.477 25.6878L44.325 21.9154C44.4791 21.3236 45.0187 20.9538 45.6354 21.1017L49.5667 21.9154C50.1834 22.0633 50.5688 22.5811 50.4146 23.1728L49.5667 26.9453C49.4125 27.5371 48.8729 27.9069 48.2563 27.759L44.325 26.9453C43.7083 26.8713 43.3229 26.2796 43.477 25.6878ZM3.00776 24.5783L12.335 22.0633L34.3811 16.2197L36.7707 15.554H36.9249C37.079 15.554 37.3103 15.7019 37.3874 15.9238L37.6957 16.8854L38.5436 19.9182L3.85568 29.1644L2.69942 25.17C2.62234 24.9481 2.7765 24.6522 3.00776 24.5783ZM43.3229 36.2655C43.3999 36.4134 43.3229 36.5614 43.2458 36.6353C43.1687 36.7093 43.0916 36.7833 42.9374 36.8572L9.1745 45.8815H9.02034C8.86617 45.8815 8.63491 45.7336 8.55783 45.5117L5.16612 33.6765L39.9312 24.4303L42.0895 31.7533L43.3229 36.2655Z" fill="white"/>
<path d="M39.5457 15.3321C39.1603 13.9266 37.6186 13.113 36.2311 13.5568L29.756 15.2581L14.5704 12.1514L12.8746 19.7702L2.46817 22.5811C1.00356 22.9509 0.232721 24.4303 0.618143 25.7618L6.47655 46.1034C6.86197 47.5089 8.40366 48.3225 9.79118 47.8787L43.5541 38.8544C45.0187 38.4846 45.8666 37.0052 45.4041 35.6737L44.402 32.2711L48.1792 33.0108C49.6438 33.3067 51.0313 32.4191 51.3396 31.0136L53.7292 20.1401L40.0853 17.4032L39.5457 15.3321ZM43.477 25.6878L44.325 21.9154C44.4791 21.3236 45.0187 20.9538 45.6354 21.1017L49.5667 21.9154C50.1834 22.0633 50.5688 22.5811 50.4146 23.1728L49.5667 26.9453C49.4125 27.5371 48.8729 27.9069 48.2563 27.759L44.325 26.9453C43.7083 26.8713 43.3229 26.2796 43.477 25.6878ZM3.00776 24.5783L12.335 22.0633L34.3811 16.2197L36.7707 15.554H36.9249C37.079 15.554 37.3103 15.7019 37.3874 15.9238L37.6957 16.8854L38.5436 19.9182L3.85568 29.1644L2.69942 25.17C2.62234 24.9481 2.7765 24.6522 3.00776 24.5783ZM43.3229 36.2655C43.3999 36.4134 43.3229 36.5614 43.2458 36.6353C43.1687 36.7093 43.0916 36.7833 42.9374 36.8572L9.1745 45.8815H9.02034C8.86617 45.8815 8.63491 45.7336 8.55783 45.5117L5.16612 33.6765L39.9312 24.4303L42.0895 31.7533L43.3229 36.2655Z" stroke="#11B1CE"/>
<path d="M14.6485 37.0791C14.4943 36.4874 13.8777 36.1915 13.261 36.3395L9.32966 37.3749C8.71299 37.5228 8.40465 38.1145 8.55882 38.7062L9.638 42.4783C9.79217 43.07 10.4088 43.3658 11.0255 43.2179L14.9568 42.1824C15.5735 42.0345 15.8818 41.4428 15.7277 40.8511L14.6485 37.0791Z" fill="white"/>
<path d="M14.6485 37.0791C14.4943 36.4874 13.8777 36.1915 13.261 36.3395L9.32966 37.3749C8.71299 37.5228 8.40465 38.1145 8.55882 38.7062L9.638 42.4783C9.79217 43.07 10.4088 43.3658 11.0255 43.2179L14.9568 42.1824C15.5735 42.0345 15.8818 41.4428 15.7277 40.8511L14.6485 37.0791Z" stroke="#11B1CE"/>
</svg>
