<svg width="46" height="44" viewBox="0 0 46 44" fill="none" xmlns="http://www.w3.org/2000/svg">
<path d="M3.59699 3.23544H3.39699V3.43544V8.25826C3.39699 9.06417 2.66522 9.77598 1.7985 9.77598C0.931771 9.77598 0.2 9.06417 0.2 8.25826V1.71772C0.2 0.911812 0.931771 0.2 1.7985 0.2H8.64662C9.51334 0.2 10.2451 0.911812 10.2451 1.71772C10.2451 2.52362 9.51334 3.23544 8.64662 3.23544H3.59699ZM42.603 3.43544V3.23544H42.403H37.3534C36.4867 3.23544 35.7549 2.52362 35.7549 1.71772C35.7549 0.911812 36.4867 0.2 37.3534 0.2H44.2015C45.1323 0.2 45.8 0.906869 45.8 1.71772V8.25826C45.8 9.06417 45.0682 9.77598 44.2015 9.77598C43.3348 9.77598 42.603 9.06417 42.603 8.25826V3.43544ZM3.39699 40.4985V40.6985H3.59699H8.64662C9.51334 40.6985 10.2451 41.4103 10.2451 42.2162C10.2451 43.0221 9.51334 43.7339 8.64662 43.7339H1.7985C0.931771 43.7339 0.2 43.0221 0.2 42.2162V35.6757C0.2 34.8826 0.918363 34.2216 1.80525 34.158C2.66902 34.1617 3.39699 34.8719 3.39699 35.6757V40.4985ZM42.403 40.7646H42.603V40.5646V35.7417C42.603 34.9358 43.3348 34.224 44.2015 34.224C45.1427 34.224 45.8 34.8748 45.8 35.6757V42.2823C45.8 43.0882 45.0682 43.8 44.2015 43.8H37.3534C36.4867 43.8 35.7549 43.0882 35.7549 42.2823C35.7549 41.4764 36.4867 40.7646 37.3534 40.7646H42.403ZM18.0466 10.1742V9.97417H17.8466H10.6526H10.4526V10.1742V17.045V17.245H10.6526H17.8466H18.0466V17.045V10.1742ZM36.4466 10.1742V9.97417H36.2466H29.0526H28.8526V10.1742V17.045V17.245H29.0526H36.2466H36.4466V17.045V10.1742ZM18.0466 27.7477V27.5477H17.8466H10.6526H10.4526V27.7477V34.6186V34.8186H10.6526H17.8466H18.0466V34.6186V27.7477ZM34.1639 29.994V29.794H33.9639H31.4045H31.2045V29.994V32.4384V32.6384H31.4045H33.9639H34.1639V32.4384V29.994ZM21.2436 8.45646V18.7628C21.2436 19.5687 20.5118 20.2805 19.6451 20.2805H8.85414C7.98741 20.2805 7.25564 19.5687 7.25564 18.7628V8.45646C7.25564 7.65055 7.98741 6.93874 8.85414 6.93874H19.6451C20.5118 6.93874 21.2436 7.65055 21.2436 8.45646ZM38.0451 20.2805H27.2541C26.3874 20.2805 25.6556 19.5687 25.6556 18.7628V8.45646C25.6556 7.65055 26.3874 6.93874 27.2541 6.93874H38.0451C38.9118 6.93874 39.6436 7.65055 39.6436 8.45646V18.7628C39.6436 19.5736 38.9759 20.2805 38.0451 20.2805ZM21.2436 26.03V36.3363C21.2436 37.1422 20.5118 37.8541 19.6451 37.8541H8.85414C7.98741 37.8541 7.25564 37.1422 7.25564 36.3363V26.03C7.25564 25.2241 7.98741 24.5123 8.85414 24.5123H19.6451C20.5118 24.5123 21.2436 25.2241 21.2436 26.03ZM35.7624 35.6739H29.606C28.7393 35.6739 28.0075 34.9621 28.0075 34.1562V28.2763C28.0075 27.4704 28.7393 26.7586 29.606 26.7586H35.7624C36.6291 26.7586 37.3609 27.4704 37.3609 28.2763V34.1562C37.3609 34.9621 36.6291 35.6739 35.7624 35.6739Z" fill="white" stroke="#11B1CE" stroke-width="0.4"/>
</svg>
