<svg width="62" height="60" viewBox="0 0 62 60" fill="none" xmlns="http://www.w3.org/2000/svg">
<path d="M59.0076 13.5708L45.9886 3L42.3165 7.08418L55.2521 17.655L59.0076 13.5708ZM19.1994 7.32443L15.5274 3.24025L2.5918 13.5708L6.26383 17.655L19.1994 7.32443ZM32.2184 19.8172H27.9622V36.0738L41.2316 43.8418L43.4849 40.6385L32.2184 34.1519V19.8172ZM30.7997 8.92606C16.6957 8.92606 5.42928 19.8172 5.42928 33.3511C5.42928 46.8849 16.6957 57.696 30.7997 57.696C44.9036 57.696 56.1701 46.8849 56.1701 33.3511C56.1701 19.8172 44.9036 8.92606 30.7997 8.92606ZM30.7997 52.2504C19.7836 52.2504 11.0208 43.8418 11.0208 33.271C11.0208 22.7002 19.7836 14.2916 30.7997 14.2916C41.8158 14.2916 50.5786 22.7002 50.5786 33.271C50.5786 43.8418 41.8158 52.2504 30.7997 52.2504Z" fill="white" stroke="#11B1CE" stroke-width="3"/>
</svg>
